<svg width="389" height="221" viewBox="0 0 389 221" fill="none" xmlns="http://www.w3.org/2000/svg">
<path d="M338.956 42.1522V212.487C338.956 216.404 336.811 219.584 334.168 219.584H310.229C307.587 219.584 305.441 216.404 305.441 212.487V42.1522C305.441 38.2352 307.587 35.0549 310.229 35.0549H334.168C336.811 35.0549 338.956 38.2352 338.956 42.1522Z" fill="#034869"/>
<path d="M293.637 36.286V152.655C293.637 155.331 291.577 157.504 289.04 157.504H266.059C263.522 157.504 261.463 155.331 261.463 152.655V36.286C261.463 33.61 263.522 31.4373 266.059 31.4373H289.04C291.577 31.4373 293.637 33.61 293.637 36.286Z" fill="#034869"/>
<path d="M195.274 90.049V168.37C195.274 170.171 193.686 171.634 191.731 171.634H174.016C172.06 171.634 170.473 170.171 170.473 168.37V90.049C170.473 88.248 172.06 86.7856 174.016 86.7856H191.731C193.686 86.7856 195.274 88.248 195.274 90.049Z" fill="#034869"/>
<path d="M106.686 69.5683V209.242C106.686 212.454 104.926 215.061 102.76 215.061H83.1295C80.9627 215.061 79.2035 212.454 79.2035 209.242V69.5683C79.2035 66.3564 80.9627 63.7485 83.1295 63.7485H102.76C104.926 63.7485 106.686 66.3564 106.686 69.5683Z" fill="#034869"/>
<path d="M388.302 8.60163V205.484C388.302 210.012 386.178 213.688 383.562 213.688H359.862C357.246 213.688 355.122 210.012 355.122 205.484V8.60163C355.122 4.07416 357.246 0.398193 359.862 0.398193H383.562C386.178 0.398193 388.302 4.07416 388.302 8.60163Z" fill="#034869"/>
<path d="M251.842 32.8172V142.037C251.842 144.549 249.203 146.588 245.953 146.588H216.508C213.257 146.588 210.619 144.549 210.619 142.037V32.8172C210.619 30.3056 213.257 28.2664 216.508 28.2664H245.953C249.203 28.2664 251.842 30.3056 251.842 32.8172Z" fill="#034869"/>
<path d="M162.286 20.5621V212.578C162.286 216.993 159.283 220.578 155.583 220.578H122.068C118.369 220.578 115.365 216.993 115.365 212.578V20.5621C115.365 16.1465 118.369 12.5614 122.068 12.5614H155.583C159.283 12.5614 162.286 16.1465 162.286 20.5621Z" fill="#034869"/>
<path d="M64.8533 22.8298V171.982C64.8533 175.412 62.0643 178.197 58.6292 178.197H27.5083C24.0732 178.197 21.2842 175.412 21.2842 171.982V22.8298C21.2842 19.3999 24.0732 16.6151 27.5083 16.6151H58.6292C62.0643 16.6151 64.8533 19.3999 64.8533 22.8298Z" fill="#034869"/>
<path d="M7.49146 142.033C7.49146 142.033 85.0897 86.7472 135.733 86.7472C186.376 86.7472 149.487 197.479 185.074 193.379C220.661 189.279 257.551 64.7371 279.451 64.7371C301.351 64.7371 297.929 128.022 323.935 128.022C349.941 128.022 372.945 152.504 372.945 152.504" stroke="#0FB0C1" stroke-width="13.9918" stroke-linecap="round" stroke-linejoin="round" stroke-dasharray="55.97 7"/>
</svg>
