<svg width="79" height="79" viewBox="0 0 79 79" fill="none" xmlns="http://www.w3.org/2000/svg">
<g filter="url(#filter0_d_1_2050)">
<circle cx="35.5" cy="35.5" r="27.5" fill="black"/>
</g>
<g clip-path="url(#clip0_1_2050)">
<path d="M42.7386 40.5495C42.7531 38.5778 41.9737 37.0185 40.4191 35.9173C39.2184 35.0695 37.7612 34.6272 36.3519 34.2022C33.416 33.3122 32.5643 32.8434 32.5643 31.4394C32.5643 29.8755 34.5967 29.3191 36.3366 29.3191C37.6037 29.3191 39.0615 29.713 39.9668 30.2969L41.7617 27.5171C40.5785 26.7501 38.9591 26.2269 37.36 26.0645V23.4688H34.049V26.2465C31.1058 26.894 29.2518 28.8176 29.2518 31.4394C29.2518 33.2756 30.0148 34.7318 31.5153 35.7588C32.6566 36.5429 34.0484 36.964 35.3929 37.3716C38.2727 38.242 39.4421 38.7724 39.4288 40.529L39.4287 40.5419C39.4287 42.0163 37.4749 42.5404 35.801 42.5404C34.2199 42.5404 32.5004 41.8474 31.5258 40.8171L29.1204 43.0923C30.3547 44.3978 32.1481 45.3208 34.0489 45.6826V48.3907H37.36V45.7409C40.6304 45.2727 42.7354 43.3038 42.7386 40.5495Z" fill="white"/>
</g>
<defs>
<filter id="filter0_d_1_2050" x="0" y="0" width="79" height="79" filterUnits="userSpaceOnUse" color-interpolation-filters="sRGB">
<feFlood flood-opacity="0" result="BackgroundImageFix"/>
<feColorMatrix in="SourceAlpha" type="matrix" values="0 0 0 0 0 0 0 0 0 0 0 0 0 0 0 0 0 0 127 0" result="hardAlpha"/>
<feOffset dx="4" dy="4"/>
<feGaussianBlur stdDeviation="6"/>
<feComposite in2="hardAlpha" operator="out"/>
<feColorMatrix type="matrix" values="0 0 0 0 0 0 0 0 0 0 0 0 0 0 0 0 0 0 0.15 0"/>
<feBlend mode="normal" in2="BackgroundImageFix" result="effect1_dropShadow_1_2050"/>
<feBlend mode="normal" in="SourceGraphic" in2="effect1_dropShadow_1_2050" result="shape"/>
</filter>
<clipPath id="clip0_1_2050">
<rect width="24.9219" height="24.9219" fill="white" transform="translate(23.4688 23.4688)"/>
</clipPath>
</defs>
</svg>
