<svg width="79" height="79" viewBox="0 0 79 79" fill="none" xmlns="http://www.w3.org/2000/svg">
<g filter="url(#filter0_d_1_2038)">
<g filter="url(#filter1_d_1_2038)">
<circle cx="35.5" cy="35.5" r="27.5" fill="black"/>
</g>
<g clip-path="url(#clip0_1_2038)">
<path d="M47.5338 34.7425L43.8622 31.0709V26.8296C43.8622 26.0627 43.2408 25.4412 42.4728 25.4412C41.7065 25.4412 41.0851 26.0627 41.0851 26.8296V28.2938L38.3513 25.5599C36.9997 24.209 34.6496 24.2114 33.3011 25.5623L24.1207 34.7425C23.5788 35.2855 23.5788 36.1641 24.1207 36.7063C24.6629 37.2492 25.5433 37.2492 26.0853 36.7063L35.2647 27.5259C35.5638 27.2284 36.0909 27.2284 36.3883 27.525L45.5694 36.7063C45.8416 36.9778 46.1965 37.1128 46.5514 37.1128C46.907 37.1128 47.2625 36.9776 47.5339 36.7063C48.076 36.1642 48.076 35.2855 47.5338 34.7425Z" fill="white"/>
<path d="M36.3097 30.1614C36.0429 29.8948 35.6111 29.8948 35.3451 30.1614L27.2701 38.2341C27.1426 38.3615 27.0703 38.5355 27.0703 38.7171V44.605C27.0703 45.9866 28.1906 47.1069 29.5722 47.1069H33.5701V40.9153H38.0838V47.1069H42.0818C43.4634 47.1069 44.5836 45.9866 44.5836 44.6051V38.7171C44.5836 38.5355 44.512 38.3615 44.3838 38.2341L36.3097 30.1614Z" fill="white"/>
</g>
</g>
<defs>
<filter id="filter0_d_1_2038" x="4" y="8" width="63" height="63" filterUnits="userSpaceOnUse" color-interpolation-filters="sRGB">
<feFlood flood-opacity="0" result="BackgroundImageFix"/>
<feColorMatrix in="SourceAlpha" type="matrix" values="0 0 0 0 0 0 0 0 0 0 0 0 0 0 0 0 0 0 127 0" result="hardAlpha"/>
<feOffset dy="4"/>
<feGaussianBlur stdDeviation="2"/>
<feComposite in2="hardAlpha" operator="out"/>
<feColorMatrix type="matrix" values="0 0 0 0 0 0 0 0 0 0 0 0 0 0 0 0 0 0 0.25 0"/>
<feBlend mode="normal" in2="BackgroundImageFix" result="effect1_dropShadow_1_2038"/>
<feBlend mode="normal" in="SourceGraphic" in2="effect1_dropShadow_1_2038" result="shape"/>
</filter>
<filter id="filter1_d_1_2038" x="0" y="0" width="79" height="79" filterUnits="userSpaceOnUse" color-interpolation-filters="sRGB">
<feFlood flood-opacity="0" result="BackgroundImageFix"/>
<feColorMatrix in="SourceAlpha" type="matrix" values="0 0 0 0 0 0 0 0 0 0 0 0 0 0 0 0 0 0 127 0" result="hardAlpha"/>
<feOffset dx="4" dy="4"/>
<feGaussianBlur stdDeviation="6"/>
<feComposite in2="hardAlpha" operator="out"/>
<feColorMatrix type="matrix" values="0 0 0 0 0 0 0 0 0 0 0 0 0 0 0 0 0 0 0.15 0"/>
<feBlend mode="normal" in2="BackgroundImageFix" result="effect1_dropShadow_1_2038"/>
<feBlend mode="normal" in="SourceGraphic" in2="effect1_dropShadow_1_2038" result="shape"/>
</filter>
<clipPath id="clip0_1_2038">
<rect width="24.2262" height="24.2262" fill="white" transform="translate(23.7143 23.7143)"/>
</clipPath>
</defs>
</svg>
