<svg width="224" height="504" viewBox="0 0 224 504" fill="none" xmlns="http://www.w3.org/2000/svg">
<path d="M80.458 387.223L294.557 262.76L448.218 352.075L233.669 476.275L80.458 387.223Z" fill="#AF0404"/>
<path d="M80.4579 387.222V399.922L233.669 488.975V476.275L80.4579 387.222Z" fill="#650000"/>
<path d="M85.9478 228.434L148.609 225.307L233.67 306.207V430.071V472.339L85.9478 386.478V228.434Z" fill="#D0A600"/>
<path d="M233.67 393.546V397.481L80.4579 308.428L85.9483 305.201V307.685L233.67 393.546Z" fill="#9D0101"/>
<path d="M80.4579 308.428V312.103L233.669 401.156V397.481L80.4579 308.428Z" fill="#780101"/>
<path d="M138.054 416.765L142.868 413.967V379.847L138.054 377.049V416.765Z" fill="#E7BA04"/>
<path d="M159.093 428.993V423.398L142.867 413.967L138.054 416.765L159.093 428.993Z" fill="#DCB103"/>
<path d="M159.093 423.398V389.331L142.868 379.847V413.967L159.093 423.398Z" fill="#929292"/>
<path d="M157.865 391.313L141.297 381.684V414.434L157.865 424.064V391.313Z" fill="#D5D5D5"/>
<path d="M156.483 392.172L142.679 384.149V392.345L156.483 400.368V392.172Z" fill="#DD3838"/>
<path d="M156.483 411.975L142.679 403.951V413.715L156.483 421.739V411.975Z" fill="#DD3838"/>
<path d="M156.483 401.475L142.679 393.452V402.884L156.483 410.908V401.475Z" fill="#DD3838"/>
<path d="M157.865 391.313L159.054 390.622L159.051 423.374L157.865 424.064V391.313Z" fill="#AAAAAA"/>
<path d="M157.865 391.312L159.054 390.622L142.484 380.994L141.297 381.684L157.865 391.312Z" fill="#B4B4B4"/>
<path d="M176.498 442.136V446.87V451.605V456.339L152.624 470.216V465.481L160.469 460.921V456.187L168.528 451.503V446.768L176.498 442.136Z" fill="#840101"/>
<path d="M152.623 465.481L100.113 434.959V439.694L152.623 470.216V465.481Z" fill="#650101"/>
<path d="M160.468 456.187L107.957 425.665V430.4L160.468 460.921V456.187Z" fill="#650101"/>
<path d="M168.528 446.768L116.016 416.247V420.981L168.528 451.503V446.768Z" fill="#650101"/>
<path d="M160.469 460.921C159.245 461.633 158.022 462.344 156.798 463.055C155.407 463.864 154.016 464.672 152.624 465.481L100.113 434.959L107.957 430.4L160.469 460.921Z" fill="#AF0505"/>
<path d="M168.528 451.502L164.139 454.054C162.915 454.764 161.692 455.476 160.469 456.186L107.957 425.665L116.016 420.981L168.528 451.502Z" fill="#AF0505"/>
<path d="M176.498 442.136C175.065 442.969 173.631 443.802 172.197 444.636C170.974 445.346 169.751 446.058 168.528 446.768L116.016 416.247L123.987 411.614L176.498 442.136Z" fill="#AF0505"/>
<path d="M127.466 365.654L127.465 416.485C127.479 416.968 127.154 417.434 126.566 417.776C125.367 418.473 123.421 418.473 122.222 417.776C121.63 417.431 121.306 416.961 121.325 416.474H121.321L121.322 365.765L121.326 365.766L127.466 365.654Z" fill="white"/>
<path d="M171.179 390.553L171.18 441.385C171.193 441.869 170.868 442.335 170.28 442.676C169.081 443.374 167.136 443.374 165.936 442.676C165.344 442.331 165.02 441.862 165.04 441.375H165.036L165.036 390.664L165.039 390.665L171.179 390.553Z" fill="white"/>
<path d="M128.464 366.523L162.131 403.218L192.511 385.56L158.844 348.865L128.464 366.523Z" fill="#4B780B"/>
<path d="M162.13 405.768V403.219L128.463 366.524V369.073L162.13 405.768Z" fill="#335109"/>
<path d="M162.13 405.768V403.218L192.512 385.56V388.109L162.13 405.768Z" fill="#5B9903"/>
<path d="M102.069 370.053L128.464 369.073V366.524L102.069 367.504V370.053Z" fill="#335109"/>
<path d="M102.068 367.503L132.45 349.845L158.844 348.865L128.464 366.523L102.068 367.503Z" fill="#3A5B0C"/>
<path d="M148.609 219.58L243.602 322.867L449.899 202.957L354.907 99.6711L148.609 219.58Z" fill="#4B780B"/>
<path d="M243.602 328.594V322.866L148.609 219.579V225.307L243.602 328.594Z" fill="#325108"/>
<path d="M72.4425 229.109L148.609 225.307V219.58L72.4425 223.381V229.109Z" fill="#325108"/>
<path d="M72.4424 223.381L278.74 103.472L354.907 99.6701L148.609 219.579L72.4424 223.381Z" fill="#3A5B0C"/>
</svg>
