<svg width="79" height="79" viewBox="0 0 79 79" fill="none" xmlns="http://www.w3.org/2000/svg">
<g filter="url(#filter0_d_1_2062)">
<circle cx="35.5" cy="35.5" r="27.5" fill="black"/>
</g>
<g clip-path="url(#clip0_1_2062)">
<path d="M44.0642 27.591C41.5137 25.0405 37.3639 25.0406 34.8134 27.5911C33.0712 29.3332 32.4661 31.9006 33.2204 34.2299L25.8537 41.5966C25.7422 41.7081 25.6795 41.8591 25.6795 42.017V45.3811C25.6795 45.7098 25.9455 45.9758 26.2742 45.9758H29.6383C29.7962 45.9758 29.9472 45.9131 30.0587 45.8016L30.8996 44.9601C31.0279 44.8318 31.0906 44.6517 31.0697 44.4711L30.9652 43.5675L32.2172 43.4496C32.5018 43.4229 32.7265 43.1982 32.7532 42.9136L32.8711 41.6616L33.7747 41.7667C33.9425 41.7893 34.1115 41.733 34.2387 41.6203C34.3653 41.5071 34.4379 41.3456 34.4379 41.1761V40.0689H35.525C35.6829 40.0689 35.8339 40.0062 35.9454 39.8946L37.4704 38.3898C39.7991 39.1448 42.322 38.5852 44.0642 36.8419C46.6147 34.2914 46.6147 30.1416 44.0642 27.591ZM42.3819 31.7961C41.6862 32.4918 40.555 32.4918 39.8593 31.7961C39.1635 31.1003 39.1635 29.9691 39.8593 29.2734C40.555 28.5777 41.6862 28.5777 42.3819 29.2734C43.0776 29.9691 43.0776 31.1003 42.3819 31.7961Z" fill="white"/>
</g>
<defs>
<filter id="filter0_d_1_2062" x="0" y="0" width="79" height="79" filterUnits="userSpaceOnUse" color-interpolation-filters="sRGB">
<feFlood flood-opacity="0" result="BackgroundImageFix"/>
<feColorMatrix in="SourceAlpha" type="matrix" values="0 0 0 0 0 0 0 0 0 0 0 0 0 0 0 0 0 0 127 0" result="hardAlpha"/>
<feOffset dx="4" dy="4"/>
<feGaussianBlur stdDeviation="6"/>
<feComposite in2="hardAlpha" operator="out"/>
<feColorMatrix type="matrix" values="0 0 0 0 0 0 0 0 0 0 0 0 0 0 0 0 0 0 0.15 0"/>
<feBlend mode="normal" in2="BackgroundImageFix" result="effect1_dropShadow_1_2062"/>
<feBlend mode="normal" in="SourceGraphic" in2="effect1_dropShadow_1_2062" result="shape"/>
</filter>
<clipPath id="clip0_1_2062">
<rect width="20.2976" height="20.2976" fill="white" transform="translate(25.6785 25.6786)"/>
</clipPath>
</defs>
</svg>
