<svg width="74" height="37" viewBox="0 0 74 37" fill="none" xmlns="http://www.w3.org/2000/svg">
<path d="M10.2 1.35C10.8 2.45 11.4833 3.81667 12.25 5.45C13.05 7.05 13.8667 8.8 14.7 10.7C15.5667 12.5667 16.4167 14.4833 17.25 16.45C18.0833 18.4167 18.8667 20.2667 19.6 22C20.3333 20.2667 21.1167 18.4167 21.95 16.45C22.7833 14.4833 23.6167 12.5667 24.45 10.7C25.3167 8.8 26.1333 7.05 26.9 5.45C27.7 3.81667 28.4 2.45 29 1.35H36.1C36.4333 3.65 36.7333 6.23333 37 9.1C37.3 11.9333 37.55 14.9 37.75 18C37.9833 21.0667 38.1833 24.15 38.35 27.25C38.55 30.35 38.7167 33.2667 38.85 36H31.25C31.15 32.6333 31.0167 28.9667 30.85 25C30.6833 21.0333 30.4333 17.0333 30.1 13C29.5 14.4 28.8333 15.95 28.1 17.65C27.3667 19.35 26.6333 21.05 25.9 22.75C25.2 24.45 24.5167 26.0833 23.85 27.65C23.1833 29.1833 22.6167 30.5 22.15 31.6H16.7C16.2333 30.5 15.6667 29.1833 15 27.65C14.3333 26.0833 13.6333 24.45 12.9 22.75C12.2 21.05 11.4833 19.35 10.75 17.65C10.0167 15.95 9.35 14.4 8.75 13C8.41667 17.0333 8.16667 21.0333 8 25C7.83333 28.9667 7.7 32.6333 7.6 36H1.19209e-07C0.133333 33.2667 0.283334 30.35 0.45 27.25C0.65 24.15 0.85 21.0667 1.05 18C1.28333 14.9 1.53333 11.9333 1.8 9.1C2.1 6.23333 2.41667 3.65 2.75 1.35H10.2ZM61.673 36.7C56.0397 36.7 51.7397 35.1333 48.773 32C45.8397 28.8667 44.373 24.4167 44.373 18.65C44.373 15.7833 44.823 13.2333 45.723 11C46.623 8.73333 47.8564 6.83333 49.423 5.3C50.9897 3.73333 52.8564 2.55 55.023 1.75C57.1897 0.949997 59.5397 0.549997 62.073 0.549997C63.5397 0.549997 64.873 0.666665 66.073 0.899999C67.273 1.1 68.323 1.35 69.223 1.65C70.123 1.91667 70.873 2.2 71.473 2.5C72.073 2.8 72.5064 3.03333 72.773 3.2L70.523 9.5C69.4564 8.93333 68.2064 8.45 66.773 8.05C65.373 7.65 63.773 7.45 61.973 7.45C60.773 7.45 59.5897 7.65 58.423 8.05C57.2897 8.45 56.273 9.1 55.373 10C54.5064 10.8667 53.8064 12 53.273 13.4C52.7397 14.8 52.473 16.5 52.473 18.5C52.473 20.1 52.6397 21.6 52.973 23C53.3397 24.3667 53.9064 25.55 54.673 26.55C55.473 27.55 56.5064 28.35 57.773 28.95C59.0397 29.5167 60.573 29.8 62.373 29.8C63.5064 29.8 64.523 29.7333 65.423 29.6C66.323 29.4667 67.123 29.3167 67.823 29.15C68.523 28.95 69.1397 28.7333 69.673 28.5C70.2064 28.2667 70.6897 28.05 71.123 27.85L73.273 34.1C72.173 34.7667 70.623 35.3667 68.623 35.9C66.623 36.4333 64.3064 36.7 61.673 36.7Z" fill="white"/>
</svg>
