<svg width="52" height="26" viewBox="0 0 52 26" fill="none" xmlns="http://www.w3.org/2000/svg">
<path d="M7.24 0.744999C7.66 1.515 8.13833 2.47167 8.675 3.615C9.235 4.735 9.80667 5.96 10.39 7.29C10.9967 8.59667 11.5917 9.93833 12.175 11.315C12.7583 12.6917 13.3067 13.9867 13.82 15.2C14.3333 13.9867 14.8817 12.6917 15.465 11.315C16.0483 9.93833 16.6317 8.59667 17.215 7.29C17.8217 5.96 18.3933 4.735 18.93 3.615C19.49 2.47167 19.98 1.515 20.4 0.744999H25.37C25.6033 2.355 25.8133 4.16333 26 6.17C26.21 8.15333 26.385 10.23 26.525 12.4C26.6883 14.5467 26.8283 16.705 26.945 18.875C27.085 21.045 27.2017 23.0867 27.295 25H21.975C21.905 22.6433 21.8117 20.0767 21.695 17.3C21.5783 14.5233 21.4033 11.7233 21.17 8.9C20.75 9.88 20.2833 10.965 19.77 12.155C19.2567 13.345 18.7433 14.535 18.23 15.725C17.74 16.915 17.2617 18.0583 16.795 19.155C16.3283 20.2283 15.9317 21.15 15.605 21.92H11.79C11.4633 21.15 11.0667 20.2283 10.6 19.155C10.1333 18.0583 9.64333 16.915 9.13 15.725C8.64 14.535 8.13833 13.345 7.625 12.155C7.11167 10.965 6.645 9.88 6.225 8.9C5.99167 11.7233 5.81667 14.5233 5.7 17.3C5.58333 20.0767 5.49 22.6433 5.42 25H0.1C0.193333 23.0867 0.298333 21.045 0.415 18.875C0.555 16.705 0.695 14.5467 0.835 12.4C0.998333 10.23 1.17333 8.15333 1.36 6.17C1.57 4.16333 1.79167 2.355 2.025 0.744999H7.24ZM43.2711 25.49C39.3278 25.49 36.3178 24.3933 34.2411 22.2C32.1878 20.0067 31.1611 16.8917 31.1611 12.855C31.1611 10.8483 31.4761 9.06333 32.1061 7.5C32.7361 5.91333 33.5995 4.58333 34.6961 3.51C35.7928 2.41333 37.0995 1.585 38.6161 1.025C40.1328 0.464998 41.7778 0.184998 43.5511 0.184998C44.5778 0.184998 45.5111 0.266665 46.3511 0.429999C47.1911 0.569999 47.9261 0.744999 48.5561 0.954999C49.1861 1.14167 49.7111 1.34 50.1311 1.55C50.5511 1.76 50.8545 1.92333 51.0411 2.04L49.4661 6.45C48.7195 6.05333 47.8445 5.715 46.8411 5.435C45.8611 5.155 44.7411 5.015 43.4811 5.015C42.6411 5.015 41.8128 5.155 40.9961 5.435C40.2028 5.715 39.4911 6.17 38.8611 6.8C38.2545 7.40667 37.7645 8.2 37.3911 9.18C37.0178 10.16 36.8311 11.35 36.8311 12.75C36.8311 13.87 36.9478 14.92 37.1811 15.9C37.4378 16.8567 37.8345 17.685 38.3711 18.385C38.9311 19.085 39.6545 19.645 40.5411 20.065C41.4278 20.4617 42.5011 20.66 43.7611 20.66C44.5545 20.66 45.2661 20.6133 45.8961 20.52C46.5261 20.4267 47.0861 20.3217 47.5761 20.205C48.0661 20.065 48.4978 19.9133 48.8711 19.75C49.2445 19.5867 49.5828 19.435 49.8861 19.295L51.3911 23.67C50.6211 24.1367 49.5361 24.5567 48.1361 24.93C46.7361 25.3033 45.1145 25.49 43.2711 25.49Z" fill="black"/>
</svg>
