<svg width="79" height="79" viewBox="0 0 79 79" fill="none" xmlns="http://www.w3.org/2000/svg">
<g filter="url(#filter0_d_1_2079)">
<circle cx="35.5" cy="35.5" r="27.5" fill="black"/>
</g>
<g clip-path="url(#clip0_1_2079)">
<path d="M35.9297 24.3281C29.5229 24.3281 24.3281 29.5222 24.3281 35.9297C24.3281 42.3371 29.5229 47.5312 35.9297 47.5312C42.3378 47.5312 47.5312 42.3371 47.5312 35.9297C47.5312 29.5222 42.3378 24.3281 35.9297 24.3281ZM40.2113 32.0661C41.1285 32.0661 41.8731 32.8106 41.8731 33.7279C41.8731 34.6452 41.1279 35.3897 40.2113 35.3897C39.294 35.3897 38.5494 34.6452 38.5494 33.7279C38.5494 32.8106 39.294 32.0661 40.2113 32.0661ZM31.6474 32.0661C32.5654 32.0661 33.3093 32.8106 33.3093 33.7279C33.3093 34.6452 32.5654 35.3897 31.6474 35.3897C30.7302 35.3897 29.9856 34.6452 29.9856 33.7279C29.9856 32.8106 30.7308 32.0661 31.6474 32.0661ZM42.1895 39.9633C40.7681 42.0269 38.4275 43.2585 35.9297 43.2585C33.4305 43.2585 31.0892 42.0269 29.6699 39.9626C29.3515 39.5006 29.4687 38.8678 29.9314 38.5494C30.3941 38.2304 31.0262 38.3482 31.3446 38.8109C32.3852 40.3237 34.0999 41.2261 35.9304 41.2261C37.7609 41.2261 39.4742 40.3237 40.5175 38.8109C40.8359 38.3496 41.4673 38.2324 41.9307 38.5501C42.3907 38.8685 42.5072 39.5006 42.1895 39.9633Z" fill="white"/>
</g>
<defs>
<filter id="filter0_d_1_2079" x="0" y="0" width="79" height="79" filterUnits="userSpaceOnUse" color-interpolation-filters="sRGB">
<feFlood flood-opacity="0" result="BackgroundImageFix"/>
<feColorMatrix in="SourceAlpha" type="matrix" values="0 0 0 0 0 0 0 0 0 0 0 0 0 0 0 0 0 0 127 0" result="hardAlpha"/>
<feOffset dx="4" dy="4"/>
<feGaussianBlur stdDeviation="6"/>
<feComposite in2="hardAlpha" operator="out"/>
<feColorMatrix type="matrix" values="0 0 0 0 0 0 0 0 0 0 0 0 0 0 0 0 0 0 0.15 0"/>
<feBlend mode="normal" in2="BackgroundImageFix" result="effect1_dropShadow_1_2079"/>
<feBlend mode="normal" in="SourceGraphic" in2="effect1_dropShadow_1_2079" result="shape"/>
</filter>
<clipPath id="clip0_1_2079">
<rect width="23.2031" height="23.2031" fill="white" transform="translate(24.3281 24.3281)"/>
</clipPath>
</defs>
</svg>
