<svg width="62" height="63" viewBox="0 0 62 63" fill="none" xmlns="http://www.w3.org/2000/svg">
<g filter="url(#filter0_d_1_2417)">
<circle cx="27" cy="27.7781" r="19" fill="white"/>
</g>
<g clip-path="url(#clip0_1_2417)">
<path d="M33.7093 26.1127V22.2457H31.1473V23.7893L26.4858 19.5362L17 28.1384H19.1911V37.0201H33.7947V28.1384H36L33.7093 26.1127ZM28.2999 32.8507C27.99 33.1259 27.6055 33.3153 27.1572 33.4134L27.1646 34.4141L25.7777 34.4176L25.7712 33.417C25.3545 33.3212 25.0536 33.1239 24.6948 32.8271C24.2177 32.4161 23.9691 31.936 23.9532 31.398L23.9529 31.3888L23.9867 30.9572L25.3227 30.9523L25.3325 31.2162C25.338 31.5724 25.4415 31.8311 25.6489 32.0108C25.8571 32.1978 26.0367 32.2918 26.4469 32.2918C26.8507 32.2885 27.1642 32.1908 27.3776 32.0014C27.5825 31.8208 27.6819 31.5686 27.6819 31.2299C27.6819 30.961 27.5911 30.7639 27.3959 30.6097C27.1734 30.4351 26.7727 30.279 26.2056 30.1461C25.5177 29.9861 24.9902 29.7376 24.6377 29.4075C24.2617 29.0508 24.07 28.602 24.0669 28.0729C24.063 27.4666 24.2995 26.9621 24.7697 26.5733C25.0452 26.3443 25.3687 26.1833 25.7328 26.0936L25.7261 25.2183L27.1125 25.2087L27.1162 26.0542C27.523 26.1338 27.789 26.2979 28.0915 26.5444C28.5434 26.9223 28.789 27.4397 28.8232 28.0835L28.833 28.3657L27.4911 28.3741L27.4542 28.1452C27.4089 27.8076 27.3017 27.5647 27.135 27.4183C26.9583 27.2634 26.8348 27.199 26.5276 27.199H26.508C26.1551 27.199 25.8728 27.281 25.6901 27.4371C25.5131 27.5851 25.4322 27.7813 25.4345 28.056C25.4345 28.2865 25.5117 28.4612 25.6705 28.5918C25.7989 28.7 26.0748 28.8558 26.6688 28.9922C27.4399 29.1734 28.03 29.444 28.4233 29.7965C28.8372 30.1709 29.0467 30.6448 29.0467 31.2054C29.0508 31.87 28.7995 32.4239 28.2999 32.8507Z" fill="black"/>
</g>
<defs>
<filter id="filter0_d_1_2417" x="0" y="0.778076" width="62" height="62" filterUnits="userSpaceOnUse" color-interpolation-filters="sRGB">
<feFlood flood-opacity="0" result="BackgroundImageFix"/>
<feColorMatrix in="SourceAlpha" type="matrix" values="0 0 0 0 0 0 0 0 0 0 0 0 0 0 0 0 0 0 127 0" result="hardAlpha"/>
<feOffset dx="4" dy="4"/>
<feGaussianBlur stdDeviation="6"/>
<feComposite in2="hardAlpha" operator="out"/>
<feColorMatrix type="matrix" values="0 0 0 0 0 0 0 0 0 0 0 0 0 0 0 0 0 0 0.15 0"/>
<feBlend mode="normal" in2="BackgroundImageFix" result="effect1_dropShadow_1_2417"/>
<feBlend mode="normal" in="SourceGraphic" in2="effect1_dropShadow_1_2417" result="shape"/>
</filter>
<clipPath id="clip0_1_2417">
<rect width="19" height="19" fill="white" transform="translate(17 18.7781)"/>
</clipPath>
</defs>
</svg>
